{
    "accessors": [
        {
            "bufferView": 0,
            "componentType": 5126,
            "count": 2452,
            "max": [
                2.82373046875,
                0.32958984375,
                0.0124969482421875
            ],
            "min": [
                -2.82373046875,
                0.0,
                -0.0124969482421875
            ],
            "type": "VEC3"
        },
        {
            "bufferView": 1,
            "componentType": 5126,
            "count": 2452,
            "type": "VEC2"
        },
        {
            "bufferView": 2,
            "componentType": 5126,
            "count": 2452,
            "type": "VEC3"
        },
        {
            "bufferView": 3,
            "componentType": 5123,
            "count": 2556,
            "type": "SCALAR"
        },
        {
            "bufferView": 4,
            "componentType": 5123,
            "count": 3,
            "type": "SCALAR"
        },
        {
            "bufferView": 5,
            "componentType": 5123,
            "count": 1884,
            "type": "SCALAR"
        },
        {
            "bufferView": 6,
            "componentType": 5123,
            "count": 3,
            "type": "SCALAR"
        },
        {
            "bufferView": 7,
            "componentType": 5123,
            "count": 2556,
            "type": "SCALAR"
        }
    ],
    "asset": {
        "generator": "Adobe Creative Cloud",
        "version": "2.0"
    },
    "bufferViews": [
        {
            "buffer": 0,
            "byteLength": 29424
        },
        {
            "buffer": 0,
            "byteLength": 19616,
            "byteOffset": 29424
        },
        {
            "buffer": 0,
            "byteLength": 29424,
            "byteOffset": 49040
        },
        {
            "buffer": 0,
            "byteLength": 5112,
            "byteOffset": 78464
        },
        {
            "buffer": 0,
            "byteLength": 6,
            "byteOffset": 83576
        },
        {
            "buffer": 0,
            "byteLength": 3768,
            "byteOffset": 83582
        },
        {
            "buffer": 0,
            "byteLength": 6,
            "byteOffset": 87350
        },
        {
            "buffer": 0,
            "byteLength": 5112,
            "byteOffset": 87356
        }
    ],
    "buffers": [
        {
            "byteLength": 92468,
            "uri": "northBridgeCream.bin"
        }
    ],
    "materials": [
        {
            "alphaMode": "OPAQUE",
            "doubleSided": true,
            "emissiveFactor": [
                0.0,
                0.0,
                0.0
            ],
            "name": "THERE ARE MANY TYPES OF BRIDGE Front Inflation Material",
            "pbrMetallicRoughness": {
                "baseColorFactor": [
                    1.0,
                    0.9482414126396179,
                    0.8666666746139526,
                    1.0
                ],
                "metallicFactor": 0.07999999821186066,
                "roughnessFactor": 0.3333333432674408
            }
        },
        {
            "alphaMode": "OPAQUE",
            "doubleSided": true,
            "emissiveFactor": [
                0.0,
                0.0,
                0.0
            ],
            "name": "THERE ARE MANY TYPES OF BRIDGE Front Bevel Material",
            "pbrMetallicRoughness": {
                "baseColorFactor": [
                    1.0,
                    0.9482414126396179,
                    0.8666666746139526,
                    1.0
                ],
                "metallicFactor": 0.07999999821186066,
                "roughnessFactor": 0.3333333432674408
            }
        },
        {
            "alphaMode": "OPAQUE",
            "doubleSided": true,
            "emissiveFactor": [
                0.0,
                0.0,
                0.0
            ],
            "name": "THERE ARE MANY TYPES OF BRIDGE Extrusion Material",
            "pbrMetallicRoughness": {
                "baseColorFactor": [
                    1.0,
                    0.9482414126396179,
                    0.8666666746139526,
                    1.0
                ],
                "metallicFactor": 0.07999999821186066,
                "roughnessFactor": 0.3333333432674408
            }
        },
        {
            "alphaMode": "OPAQUE",
            "doubleSided": true,
            "emissiveFactor": [
                0.0,
                0.0,
                0.0
            ],
            "name": "THERE ARE MANY TYPES OF BRIDGE Back Bevel Material",
            "pbrMetallicRoughness": {
                "baseColorFactor": [
                    1.0,
                    0.9482414126396179,
                    0.8666666746139526,
                    1.0
                ],
                "metallicFactor": 0.07999999821186066,
                "roughnessFactor": 0.3333333432674408
            }
        },
        {
            "alphaMode": "OPAQUE",
            "doubleSided": true,
            "emissiveFactor": [
                0.0,
                0.0,
                0.0
            ],
            "name": "THERE ARE MANY TYPES OF BRIDGE Back Inflation Material",
            "pbrMetallicRoughness": {
                "baseColorFactor": [
                    1.0,
                    0.9482414126396179,
                    0.8666666746139526,
                    1.0
                ],
                "metallicFactor": 0.07999999821186066,
                "roughnessFactor": 0.3333333432674408
            }
        }
    ],
    "meshes": [
        {
            "name": "THERE ARE MANY TYPES OF BRIDGE",
            "primitives": [
                {
                    "attributes": {
                        "NORMAL": 2,
                        "POSITION": 0,
                        "TEXCOORD_0": 1
                    },
                    "indices": 3,
                    "material": 0,
                    "mode": 4
                },
                {
                    "attributes": {
                        "NORMAL": 2,
                        "POSITION": 0,
                        "TEXCOORD_0": 1
                    },
                    "indices": 4,
                    "material": 1,
                    "mode": 4
                },
                {
                    "attributes": {
                        "NORMAL": 2,
                        "POSITION": 0,
                        "TEXCOORD_0": 1
                    },
                    "indices": 5,
                    "material": 2,
                    "mode": 4
                },
                {
                    "attributes": {
                        "NORMAL": 2,
                        "POSITION": 0,
                        "TEXCOORD_0": 1
                    },
                    "indices": 6,
                    "material": 3,
                    "mode": 4
                },
                {
                    "attributes": {
                        "NORMAL": 2,
                        "POSITION": 0,
                        "TEXCOORD_0": 1
                    },
                    "indices": 7,
                    "material": 4,
                    "mode": 4
                }
            ]
        }
    ],
    "nodes": [
        {
            "matrix": [
                1.0,
                0.0,
                0.0,
                0.0,
                0.0,
                1.0,
                0.0,
                0.0,
                0.0,
                0.0,
                1.0,
                0.0,
                -2946.66455078125,
                -282.61236572265625,
                164.79176330566406,
                1.0
            ],
            "mesh": 0,
            "name": "THERE ARE MANY TYPES OF BRIDGE"
        }
    ],
    "scene": 0,
    "scenes": [
        {
            "name": "Scene",
            "nodes": [
                0
            ]
        }
    ]
}
